<?xml version="1.0"?>
<svg width="935" height="425" xmlns="http://www.w3.org/2000/svg" xmlns:svg="http://www.w3.org/2000/svg" version="1.1">
 <g class="layer" display="inline">
  <title>Layer 1</title>
  <path d="m193.8,2.71c-11.35,3.12 -20,7.65 -27.55,14.4c-5.57,5 -11.79,13.94 -12.93,18.61c-1.99,8.1 -2.47,13.77 -1.57,18.57c0.57,2.97 1.28,6.77 1.6,8.45c0.62,3.3 5.75,10.93 11.27,16.75c4.48,4.72 12.21,9.44 20.42,12.49l6.57,2.43l0,5.75l0,5.73l-38.58,0.26l-38.58,0.26l-3.83,2.25c-5.01,2.94 -7.34,6.62 -7.21,11.42c0.1,3.9 3.05,10.14 4.8,10.14c0.51,0 1.76,0.66 2.78,1.46c1.63,1.28 6.44,1.44 41.23,1.39l39.39,-0.05l0,13.8c0,7.59 0.31,14.44 0.69,15.22c0.65,1.33 9.32,7.12 20.92,13.94c2.87,1.7 6.26,3.86 7.53,4.82c1.26,0.95 4.1,2.64 6.31,3.76c2.22,1.11 4.72,2.69 5.58,3.5c0.85,0.81 2.01,1.47 2.58,1.47c0.59,0 0.99,-11.9 0.94,-28.08l-0.09,-28.08l27.21,-0.18c53.37,-0.36 51.51,-0.28 54.8,-2.32c3.76,-2.33 6.14,-6.73 6.14,-11.36c0,-4.96 -1.85,-7.67 -7.21,-10.59l-4.58,-2.51l-38.4,-0.45l-38.4,-0.45l0,-5.39l0,-5.39l8.17,-3.3c11.93,-4.82 16.46,-8.02 23.81,-16.92c6.04,-7.3 8.37,-12.71 9.3,-21.59c1.78,-16.8 -8.06,-34.04 -24.76,-43.32c-1.54,-0.86 -3.91,-2.19 -5.25,-2.97c-1.35,-0.76 -6.74,-2.6 -12,-4.06c-8.29,-2.31 -11.05,-2.65 -20.64,-2.56c-9.02,0.09 -12.83,0.59 -20.46,2.7m10.55,26.87c-10.12,3.23 -15.03,8.37 -15.88,16.62c-1.67,16.33 14.06,26.38 34.33,21.96c5.02,-1.1 11.13,-5.06 14.57,-9.43c3.1,-3.94 3.54,-14.74 0.78,-18.83c-2.11,-3.14 -6.66,-7.07 -10.47,-9.03c-5.14,-2.64 -17.02,-3.31 -23.33,-1.29m275.33,98.79c-13.28,1.98 -25.95,8.41 -31,15.77c-4.24,6.17 -5.38,16.82 -2.81,26.34c0.89,3.3 5.02,7.97 10.02,11.34c4.93,3.32 19.99,8.1 28.49,9.03c10.28,1.13 19.56,4.62 23.2,8.72c2.17,2.43 2.37,9.25 0.37,12.42c-3.67,5.79 -21.67,7.71 -32.53,3.48c-4.74,-1.85 -5.69,-2.7 -7.34,-6.6c-1.03,-2.45 -2.49,-4.62 -3.25,-4.82c-0.74,-0.2 -6.71,-0.07 -13.26,0.28l-11.9,0.64l0,3.36c0,4.95 5.45,16.24 9.46,19.57c9.26,7.69 28.45,11.24 50.41,9.31c19.25,-1.7 30.85,-7.15 36.83,-17.33c2.99,-5.09 3.31,-6.56 3.31,-15.08c0,-8.5 -0.31,-9.92 -3.14,-14.38c-5.43,-8.51 -15.59,-12.85 -40.24,-17.16c-17.43,-3.05 -21.16,-5.75 -21.06,-15.27c0.03,-2.93 0.81,-4.88 2.7,-6.74c2.59,-2.56 2.88,-2.61 13.59,-2.61c10.89,0 10.95,0.01 14.35,2.93c1.87,1.62 3.75,4.35 4.16,6.06c0.86,3.59 0.58,3.56 18.72,2.54l10.59,-0.58l-0.73,-3.68c-1.73,-8.83 -8.44,-19.61 -13.05,-20.98c-1.03,-0.31 -2.4,-1.06 -3.03,-1.67c-3.8,-3.73 -30.3,-6.75 -42.87,-4.88m83.45,53.51l0,52.56l14.86,0l14.86,0l0,-16.91l0,-16.91l4.12,-3.78l4.13,-3.78l4.95,5.8c2.73,3.2 5.72,6.95 6.64,8.35c0.91,1.38 3.01,3.74 4.63,5.22c1.63,1.48 2.97,3.03 2.97,3.43c0,0.4 1.29,2.06 2.86,3.67c1.58,1.62 2.86,3.41 2.86,3.98c0,0.58 0.39,1.04 0.86,1.04c0.47,0.01 2.66,2.23 4.86,4.94l4,4.93l17.4,0.01c19.64,0 18.78,0.5 12.39,-7.19c-1.85,-2.23 -5.33,-6.47 -7.72,-9.43c-2.39,-2.97 -4.9,-5.91 -5.59,-6.56c-0.69,-0.64 -1.86,-2.06 -2.62,-3.14c-0.74,-1.09 -6.88,-8.55 -13.61,-16.59c-6.74,-8.04 -12.25,-14.84 -12.25,-15.12c0,-0.8 9.84,-10.64 12.08,-12.09c1.12,-0.72 5.84,-4.94 10.51,-9.39c4.66,-4.45 9.33,-8.9 10.38,-9.88c1.04,-0.99 3.39,-3.41 5.22,-5.36c1.84,-1.96 4.28,-4.36 5.43,-5.34c1.15,-0.97 2.1,-2.5 2.1,-3.4c0,-1.5 -1.37,-1.63 -17.58,-1.63l-17.59,0l-2.05,2.47c-1.12,1.36 -4.9,5.56 -8.41,9.34c-3.51,3.77 -10.76,11.61 -16.09,17.41c-5.34,5.8 -10.86,11.61 -12.25,12.9l-2.54,2.35l-0.03,-22.24l-0.03,-22.24l-14.86,0l-14.86,0l0,52.56m125.74,0l0,52.56l15.43,0l15.43,0l0,-52.56l0,-52.56l-15.43,0l-15.43,0l0,52.56m54.87,0l0,52.56l15.49,0l15.48,0l-0.33,-33.09l-0.34,-33.09l8.86,12.97c4.87,7.13 8.86,13.14 8.86,13.34c0,0.2 1.2,1.88 2.67,3.72c1.46,1.84 7.2,10.23 12.73,18.63c5.54,8.4 10.59,15.78 11.19,16.4c0.8,0.81 5.76,1.12 17.55,1.12l16.44,0l0,-52.56l0,-52.56l-14.85,0l-14.85,0l-0.3,34.13l-0.3,34.12l-4.22,-6.49c-2.32,-3.58 -9.81,-15.39 -16.65,-26.26c-6.84,-10.87 -14.88,-23.31 -17.88,-27.63l-5.44,-7.86l-17.06,0l-17.06,0l0,52.56m-601.65,-25.9c-0.42,0.32 -0.77,38.92 -0.77,85.77c0,83.29 0.05,85.2 2.21,86.11c1.22,0.5 2.73,0.93 3.36,0.93c0.63,0 5.21,-2.73 10.18,-6.06c4.97,-3.33 13.84,-9.09 19.71,-12.8c5.86,-3.7 11.49,-7.36 12.51,-8.12c1.02,-0.75 3.72,-2.5 6,-3.87l4.16,-2.49l2.51,4.32c1.37,2.38 3.67,6.75 5.1,9.71c3.36,6.95 8.98,18.11 10.88,21.56c0.82,1.48 1.55,2.9 1.63,3.14c0.95,2.78 2.46,5.39 4.37,7.52c2.08,2.32 2.78,2.52 7.06,2.06c5.36,-0.58 15.44,-3.71 17.23,-5.35c0.65,-0.6 5.22,-2.7 10.17,-4.68c10.88,-4.35 11.98,-5.45 9.9,-10.07c-2.13,-4.74 -13.42,-27.61 -16.3,-33.02c-1.3,-2.45 -2.47,-4.88 -2.59,-5.39c-0.14,-0.51 -1.14,-2.55 -2.25,-4.53c-4.53,-8.07 -7.83,-7.19 26.99,-7.19c29.19,0 30.91,-0.09 32.44,-1.74c0.89,-0.96 1.62,-2.33 1.62,-3.04c0,-1.57 -8.62,-8.42 -21.83,-17.33c-8.9,-6.01 -25.22,-17.49 -38.75,-27.26c-2.83,-2.05 -9.77,-6.91 -15.43,-10.8c-5.66,-3.89 -13.89,-9.74 -18.29,-12.99c-4.41,-3.24 -17.27,-12.14 -28.58,-19.77c-11.32,-7.63 -21.9,-14.91 -23.52,-16.17c-8.62,-6.77 -17.19,-10.44 -19.72,-8.45m-126.68,75.04c-6,8.19 -7.62,10.89 -8.87,14.78c-0.61,1.9 -2.18,6.51 -3.52,10.21c-1.94,5.42 -2.51,9.99 -2.9,23.4c-0.26,9.16 -0.05,18.06 0.49,19.77c0.54,1.72 1.65,5.47 2.47,8.37c0.82,2.89 2.18,5.47 3.03,5.72c0.89,0.27 4.48,-2.07 8.61,-5.61l7.06,-6.06l1.97,3.5c1.07,1.91 2,4.01 2.05,4.65c0.17,2.37 15.89,25.75 18.26,27.14c0.41,0.24 2.64,2.47 4.94,4.94c5.34,5.74 21.03,17.76 30.61,23.45c4.08,2.42 7.68,4.65 8,4.97c0.78,0.77 24.57,12.17 29.65,14.21c20.86,8.39 31.07,12.6 34.93,14.43c10.56,5 26.92,14.12 35.7,19.9l9.41,6.2l11.5,-7.66c6.33,-4.21 11.87,-7.66 12.31,-7.66c0.45,0 2.61,-1.22 4.81,-2.7c2.21,-1.48 4.9,-2.92 6,-3.2c1.1,-0.28 2,-0.84 2,-1.24c0,-0.4 2.85,-1.86 6.31,-3.24c3.48,-1.37 6.88,-3.05 7.57,-3.69c0.7,-0.66 1.98,-1.2 2.86,-1.2c3.27,0 35.56,-13.59 47.69,-20.08c21.52,-11.5 40.13,-25.31 50.91,-37.79c6.9,-8.01 16.17,-22.96 18.42,-29.73c0.82,-2.47 1.68,-4.67 1.92,-4.89c0.23,-0.22 3.75,2.19 7.83,5.37c6.05,4.72 7.76,5.61 9.32,4.84c1.04,-0.52 1.98,-1.73 2.08,-2.69c0.11,-0.96 0.9,-4.77 1.76,-8.48c1.98,-8.48 2,-30.9 0.05,-38.64c-0.81,-3.22 -1.69,-6.76 -1.95,-7.88c-0.27,-1.11 -1.78,-4.75 -3.37,-8.09c-3.22,-6.74 -3.35,-7.02 -4.5,-9.87c-0.46,-1.11 -1.2,-2.02 -1.66,-2.02c-0.47,0 -1.77,-1.62 -2.9,-3.59c-3.27,-5.7 -2.61,-6.12 -17.44,11.23c-5.5,6.42 -10.4,12.09 -10.91,12.58c-0.5,0.49 -3.33,3.53 -6.29,6.75c-2.95,3.22 -8.97,9.39 -13.37,13.71c-4.4,4.32 -8.06,8.67 -8.13,9.66c-0.15,2.02 0.87,2.28 12.13,3.13c13.2,0.99 12.76,0.66 8.87,6.58c-3.9,5.93 -7.72,10.96 -9.4,12.41c-0.65,0.56 -1.97,1.93 -2.9,3.05c-5.86,7.02 -17.07,16.14 -27.37,22.29c-10.18,6.09 -17.59,9.57 -32.08,15.07c-5.98,2.27 -12.14,4.65 -13.72,5.27c-4.64,1.86 -19.71,5.72 -24.85,6.37c-2.62,0.33 -6.06,0.35 -7.65,0.04c-4.94,-0.98 -10.45,-5.62 -13.68,-11.53c-1.7,-3.1 -3.54,-6.3 -4.09,-7.1c-0.55,-0.8 -1.54,-3.05 -2.22,-5c-0.78,-2.26 -2.25,-4 -4.07,-4.76c-2.58,-1.09 -3.09,-1 -5.16,0.88c-1.27,1.14 -2.3,2.39 -2.3,2.78c0,0.39 -0.64,1.23 -1.43,1.89c-0.79,0.65 -2.86,2.85 -4.62,4.88c-3.77,4.37 -10.75,8.45 -18.22,10.67c-4.16,1.23 -7.64,1.5 -15.17,1.19c-5.37,-0.22 -10.37,-0.87 -11.11,-1.46c-0.74,-0.58 -2.47,-1.06 -3.84,-1.06c-1.37,0 -4.48,-0.64 -6.92,-1.41c-2.43,-0.78 -5.97,-1.89 -7.85,-2.47c-5.91,-1.82 -24.14,-9.29 -28.09,-11.51c-10.41,-5.86 -15.34,-9.21 -21.62,-14.71c-3.37,-2.97 -6.44,-5.6 -6.8,-5.84c-2.34,-1.58 -7.32,-7.92 -11.9,-15.14c-5.08,-8.01 -6.36,-11.1 -4.47,-10.76c0.47,0.08 5.61,-0.17 11.43,-0.57c10.51,-0.71 10.57,-0.73 10.57,-3.15c0,-1.57 -2.06,-4.45 -5.86,-8.19c-3.22,-3.16 -6.31,-5.89 -6.86,-6.06c-0.55,-0.17 -0.99,-0.68 -0.99,-1.14c0,-0.46 -2.4,-3.15 -5.35,-5.98c-5.43,-5.24 -10.78,-11.47 -22.08,-25.75c-3.46,-4.37 -7.32,-8.93 -8.57,-10.13l-2.3,-2.19l-4.16,5.68m793.48,26.79c-7.08,0.97 -17.17,4.22 -20.39,6.58c-9.59,7 -13.36,16.54 -13.24,33.4c0.1,13.4 1.86,19.79 7.27,26.43c11.81,14.47 41.46,17.12 57.78,5.17c16.08,-11.77 18.13,-46.43 3.62,-61.38c-4.79,-4.94 -11.26,-8.04 -20.24,-9.7c-4.06,-0.75 -7.89,-1.32 -8.52,-1.28c-0.63,0.05 -3.45,0.41 -6.29,0.79m-366.93,39.08l0,38.19l10.14,0l10.14,0l-0.27,-16.17l-0.26,-16.17l13.57,0l13.56,0l0,16.17l0,16.17l10,0l10,0l-0.21,-33.92c-0.11,-18.65 -0.25,-35.84 -0.29,-38.19l-0.08,-4.27l-9.72,0l-9.72,0l0,14.83l0,14.83l-13.43,0l-13.43,0l0.22,-14.83l0.21,-14.83l-10.21,0l-10.22,0l0,38.19m109.33,-37.5c-1.49,1.9 -5.34,10.39 -5.9,13.01c-0.34,1.61 -2.16,6.96 -4.06,11.91c-6.6,17.26 -9,23.42 -12.57,32.35c-1.98,4.94 -3.81,9.88 -4.06,10.98c-0.26,1.11 -0.97,3.05 -1.59,4.33c-0.63,1.28 -1.13,2.51 -1.13,2.72c0,0.21 4.58,0.39 10.18,0.39l10.17,0l2.4,-5.99c1.31,-3.3 2.39,-6.53 2.39,-7.19c0,-0.93 3.23,-1.2 14.75,-1.2l14.75,0l2.11,6.96l2.11,6.96l11.24,0.26c6.18,0.14 10.97,-0.09 10.63,-0.51c-0.33,-0.42 -0.86,-1.9 -1.18,-3.27c-0.32,-1.38 -1.92,-5.8 -3.56,-9.83c-6.79,-16.71 -20.37,-51.49 -23.22,-59.43l-0.96,-2.7l-10.96,-0.25c-6.02,-0.14 -11.23,0.08 -11.56,0.49m65.57,37.5l0,38.19l9.43,0l9.43,0l-0.27,-13.93l-0.29,-13.93l5.53,0c6.2,0 5.61,-0.57 11.6,11.23c1.75,3.46 4.55,8.62 6.2,11.46l3.02,5.17l10.25,0c5.64,0 10.25,-0.21 10.25,-0.46c0,-0.26 -3.39,-5.82 -7.54,-12.35c-4.14,-6.54 -7.48,-12 -7.4,-12.13c0.07,-0.13 -0.66,-1.45 -1.63,-2.92c-0.98,-1.47 -1.27,-2.69 -0.64,-2.69c2.38,0 9.49,-5.88 12.4,-10.25c2.57,-3.85 3.05,-5.71 3.05,-11.76c0,-6.07 -0.48,-7.91 -3.1,-11.85c-6.47,-9.69 -14.23,-11.96 -41.07,-11.96l-19.23,0l0,38.19m81.16,0.08l0,38.27l22.58,-0.31c22.5,-0.31 22.6,-0.31 29.43,-3.02c5.77,-2.28 7.37,-3.47 10.14,-7.51c7.01,-10.24 4.81,-22.06 -5.18,-27.88l-5.27,-3.06l3.35,-2.22c5.56,-3.67 8.2,-8.74 7.46,-14.33c-0.72,-5.44 -4.93,-11.8 -9.3,-14.04c-1.59,-0.83 -3.14,-1.5 -3.46,-1.52c-0.31,-0.01 -2.7,-0.61 -5.29,-1.33c-3.45,-0.96 -10.1,-1.31 -24.6,-1.31l-19.86,0l0,38.27m171.46,-0.18l0,38.29l9.14,0l9.14,0l0,-13.93l0,-13.93l5.51,0l5.5,0l2.97,5.17c1.63,2.84 5,9 7.48,13.7l4.5,8.54l10.45,0.26c5.75,0.14 10.46,0 10.46,-0.32c0,-0.31 -1.7,-3.26 -3.77,-6.54c-3.91,-6.19 -8.17,-13.33 -11.51,-19.32l-1.93,-3.46l5.09,-3.51c9.64,-6.67 13.36,-16.96 9.78,-27.06c-1.77,-5.03 -7.8,-10.61 -14.23,-13.18c-5.4,-2.15 -6.93,-2.3 -27.15,-2.63l-21.43,-0.35l0,38.29m-59.2,-23.97c-4.13,0.62 -9.75,5.73 -12.21,11.09c-1.62,3.56 -2.25,7.23 -2.26,13.43c-0.01,7.35 0.43,9.35 3.17,14.39c3.91,7.2 8.22,9.87 15.91,9.87c4.01,0 6.12,-0.56 8.84,-2.36c6.73,-4.46 8.37,-8.73 8.53,-22.35c0.23,-18.75 -6.72,-26.36 -21.97,-24.07m-175.13,10.66l0,10.5l9.34,-0.43c8.4,-0.38 9.6,-0.66 12,-2.86c2.17,-1.99 2.66,-3.46 2.66,-8.07c0,-7.97 -1.99,-9.26 -14.57,-9.49l-9.43,-0.17l0,10.51m82.3,-2.88l0,7.75l8.36,0c10.48,0 12.35,-0.97 13.05,-6.81c0.77,-6.23 -1.52,-7.7 -12.83,-8.27l-8.58,-0.43l0,7.75m170.57,2.59l0.32,10.11l7.43,0.08c13.08,0.13 15.8,-1.59 16.43,-10.4c0.31,-4.38 -0.01,-5.21 -2.81,-7.41c-2.93,-2.3 -3.82,-2.48 -12.43,-2.48l-9.27,0l0.33,10.11m-327.59,-0.9c-0.4,2.1 -2.17,8.27 -3.94,13.7l-3.21,9.88l8.49,0.26c4.68,0.15 8.69,0.12 8.93,-0.07c0.24,-0.18 -0.86,-3.31 -2.42,-6.94c-1.58,-3.63 -2.86,-7.57 -2.86,-8.77c0,-2.1 -3.23,-11.89 -3.93,-11.89c-0.19,0 -0.66,1.72 -1.05,3.82m157.02,29.54l0,10l8.45,-0.42c10.79,-0.55 15.71,-2.63 17.19,-7.28c0.82,-2.59 0.63,-4.05 -0.87,-6.52c-2.47,-4.08 -7.57,-5.78 -17.31,-5.78l-7.46,0l0,10" fill="#ffd700" fill-rule="evenodd" id="svg_2" transform="rotate(-0.000273099 467.31 212.497)"/>
 </g>
</svg>